<svg width="118" height="118" viewBox="0 0 118 118" fill="none" xmlns="http://www.w3.org/2000/svg">
<circle cx="59" cy="59" r="57.5" fill="white" stroke="black" stroke-width="3"/>
<path d="M27.9061 58.0775H28.9777L32.2358 53.7188H34.0893L30.4113 58.6856L34.4224 64H32.5689L29.137 59.54H27.9061V64H26.2698V53.7188H27.9061V58.0775ZM39.3229 64.0724C38.5892 64.0724 37.9183 63.9276 37.3101 63.638C36.7116 63.3387 36.1951 62.9477 35.7607 62.4651C35.3263 61.9727 34.9884 61.4128 34.747 60.7853C34.5154 60.1578 34.3995 59.5159 34.3995 58.8594C34.3995 58.174 34.525 57.5175 34.776 56.89C35.027 56.2626 35.3697 55.7075 35.8041 55.2248C36.2482 54.7421 36.7695 54.3608 37.368 54.0808C37.9762 53.7912 38.6375 53.6464 39.3519 53.6464C40.0855 53.6464 40.7517 53.8009 41.3502 54.1098C41.9584 54.409 42.4748 54.8048 42.8996 55.2972C43.334 55.7895 43.6671 56.3494 43.8988 56.9769C44.1401 57.5948 44.2608 58.2271 44.2608 58.8739C44.2608 59.5593 44.1353 60.2157 43.8843 60.8432C43.6429 61.4707 43.3002 62.0258 42.8562 62.5085C42.4121 62.9815 41.886 63.3629 41.2778 63.6525C40.6792 63.9324 40.0276 64.0724 39.3229 64.0724ZM36.0503 58.8594C36.0503 59.3421 36.1275 59.8103 36.282 60.264C36.4364 60.7177 36.6537 61.1184 36.9336 61.4659C37.2232 61.8134 37.5708 62.0934 37.9762 62.3058C38.3817 62.5085 38.8354 62.6099 39.3374 62.6099C39.8587 62.6099 40.3172 62.5037 40.713 62.2913C41.1185 62.0693 41.4612 61.7796 41.7412 61.4225C42.0211 61.0653 42.2335 60.6646 42.3783 60.2206C42.5231 59.7765 42.5955 59.3228 42.5955 58.8594C42.5955 58.3671 42.5183 57.8989 42.3638 57.4548C42.2094 57.0011 41.9873 56.6053 41.6977 56.2674C41.4178 55.9198 41.075 55.6447 40.6696 55.442C40.2738 55.2296 39.8297 55.1234 39.3374 55.1234C38.8161 55.1234 38.3527 55.2344 37.9472 55.4565C37.5418 55.6689 37.1991 55.9488 36.9191 56.2963C36.6392 56.6439 36.422 57.0445 36.2675 57.4982C36.1227 57.9423 36.0503 58.396 36.0503 58.8594ZM45.9543 64V53.7188H50.2695C50.7329 53.7188 51.1577 53.8153 51.5438 54.0084C51.9396 54.2015 52.2775 54.4573 52.5575 54.7759C52.8374 55.0848 53.0546 55.442 53.2091 55.8474C53.3732 56.2432 53.4552 56.6487 53.4552 57.0638C53.4552 57.4982 53.378 57.9182 53.2236 58.3236C53.0788 58.7194 52.8712 59.0766 52.6009 59.3952C52.3306 59.7041 52.0024 59.9551 51.6162 60.1482C51.2397 60.3316 50.8198 60.4233 50.3564 60.4233H47.5761V64H45.9543ZM47.5761 58.9897H50.255C50.4867 58.9897 50.6943 58.9415 50.8777 58.8449C51.0708 58.7484 51.2349 58.6132 51.37 58.4395C51.5052 58.2657 51.6114 58.063 51.6886 57.8313C51.7659 57.5996 51.8045 57.3438 51.8045 57.0638C51.8045 56.7742 51.761 56.5136 51.6741 56.2819C51.5873 56.0502 51.4666 55.8523 51.3121 55.6882C51.1577 55.5144 50.9791 55.3841 50.7763 55.2972C50.5833 55.2006 50.3805 55.1524 50.1682 55.1524H47.5761V58.9897ZM54.2403 54.9786C54.6071 54.5345 55.0367 54.2015 55.529 53.9795C56.0214 53.7574 56.6199 53.6464 57.3246 53.6464C58.2996 53.6464 59.0575 53.8588 59.5981 54.2835C60.1483 54.6987 60.4235 55.3165 60.4235 56.1371C60.4235 56.6873 60.2883 57.1748 60.018 57.5996C59.7477 58.0147 59.3422 58.2995 58.8016 58.4539C59.4388 58.5601 59.9408 58.8304 60.3076 59.2649C60.6841 59.6993 60.8724 60.2495 60.8724 60.9156C60.8724 61.3887 60.7806 61.8183 60.5972 62.2044C60.4138 62.5906 60.158 62.9236 59.8298 63.2036C59.5112 63.4739 59.1299 63.6863 58.6858 63.8407C58.2417 63.9952 57.759 64.0724 57.2377 64.0724C56.5234 64.0724 55.891 63.9421 55.3408 63.6814C54.7905 63.4111 54.3368 63.0298 53.9796 62.5375L55.0801 61.4659C55.3311 61.8134 55.6304 62.0886 55.9779 62.2913C56.3255 62.494 56.7454 62.5954 57.2377 62.5954C57.5273 62.5954 57.7928 62.5568 58.0342 62.4795C58.2755 62.3927 58.4831 62.2768 58.6568 62.132C58.8306 61.9775 58.9657 61.7941 59.0623 61.5817C59.1685 61.3694 59.2216 61.1328 59.2216 60.8722C59.2216 60.3412 59.0092 59.9165 58.5844 59.5979C58.1693 59.2697 57.5708 59.1056 56.7888 59.1056H55.8621V57.7878H56.7309C57.4067 57.7878 57.928 57.6575 58.2948 57.3969C58.6713 57.1362 58.8596 56.7742 58.8596 56.3108C58.8596 55.8861 58.7147 55.5675 58.4251 55.3551C58.1355 55.1427 57.759 55.0365 57.2957 55.0365C56.8516 55.0365 56.451 55.1186 56.0938 55.2827C55.7462 55.4468 55.4566 55.6833 55.2249 55.9923L54.2403 54.9786ZM64.2348 61.4949L69.8388 53.7188H71.1275V64H69.4912V56.3687L63.9741 64H62.5985V53.7188H64.2348V61.4949ZM81.9435 53.7188V64H80.3072V59.4676H75.1231V64H73.5013V53.7188H75.1231V58.0195H80.3072V53.7188H81.9435ZM87.3309 53.7188H88.75L92.8046 64H91.0959L90.0098 61.2053H86.0422L84.9706 64H83.2474L87.3309 53.7188ZM89.6913 60.0034L88.0405 55.5868L86.3318 60.0034H89.6913Z" fill="black"/>
</svg>
