<svg width="206" height="206" viewBox="0 0 206 206" fill="none" xmlns="http://www.w3.org/2000/svg">
<g style="mix-blend-mode:darken" opacity="0.9">
<path d="M103 203C158.228 203 203 158.228 203 103C203 47.7715 158.228 3 103 3C47.7715 3 3 47.7715 3 103C3 158.228 47.7715 203 103 203Z" fill="white" stroke="black" stroke-width="4.08163"/>
<path d="M103 190.075C151.09 190.075 190.075 151.091 190.075 103.001C190.075 54.9105 151.09 15.9258 103 15.9258C54.91 15.9258 15.9253 54.9105 15.9253 103.001C15.9253 151.091 54.91 190.075 103 190.075Z" stroke="#A1E329" stroke-width="13.6054"/>
<path d="M43.1359 127.83H48.5781C48.5781 124.132 50.0474 120.585 52.6627 117.969C55.278 115.354 58.8251 113.885 62.5237 113.885C66.2223 113.885 69.7694 115.354 72.3847 117.969C75 120.585 76.4693 124.132 76.4693 127.83H127.15C127.059 125.106 127.789 122.417 129.244 120.113C130.7 117.808 132.814 115.994 135.313 114.905H78.1699V84.837C78.0888 83.4201 77.4893 82.0825 76.4858 81.079C75.4822 80.0754 74.1447 79.476 72.7278 79.3949H59.1223V84.4969H68.6461C69.3678 84.4969 70.0599 84.7836 70.5702 85.2939C71.0805 85.8042 71.3672 86.4963 71.3672 87.218V96.0615C71.3672 96.7832 71.0805 97.4753 70.5702 97.9856C70.0599 98.4959 69.3678 98.7826 68.6461 98.7826H49.2584C48.5814 98.8582 47.9299 98.7496 47.373 98.4685C46.8161 98.1875 46.3747 97.7443 46.0957 97.1862C45.8166 96.6281 45.7103 95.9758 45.7881 95.2987C45.8658 94.6215 46.1247 93.9448 46.5373 93.3404L50.2788 87.218C50.8063 86.4254 51.5114 85.7668 52.338 85.2944C53.1646 84.822 54.09 84.549 55.0407 84.4969H60.4829V79.3949H52.9999C51.9911 79.393 50.9975 79.6404 50.1074 80.1151C49.2173 80.5899 48.4583 81.2772 47.8978 82.116L37.6937 98.4425C37.1402 99.2545 36.7902 100.188 36.6733 101.164V122.388C36.6733 123.831 37.2467 125.216 38.2673 126.236C39.2879 127.257 40.6722 127.83 42.1155 127.83H43.1359ZM50.755 127.83C50.7551 124.691 52.0022 121.68 54.2221 119.461C56.4419 117.241 59.4526 115.994 62.5919 115.994C65.7311 115.994 68.7418 117.241 70.9616 119.461C73.1814 121.681 74.4284 124.691 74.4284 127.831C74.4284 130.97 73.1814 133.981 70.9616 136.2C68.7418 138.42 65.7311 139.667 62.5919 139.667C59.4526 139.667 56.4419 138.42 54.2221 136.201C52.0022 133.981 50.7551 130.97 50.755 127.831H56.1971C56.1972 129.527 56.871 131.153 58.0703 132.352C59.2695 133.552 60.896 134.225 62.5919 134.225C64.2878 134.225 65.9142 133.551 67.1134 132.352C68.3126 131.153 68.9863 129.526 68.9863 127.831C68.9863 126.135 68.3126 124.508 67.1134 123.309C65.9142 122.11 64.2878 121.436 62.5919 121.436C60.896 121.436 59.2695 122.11 58.0703 123.309C56.871 124.508 56.1972 126.134 56.1971 127.83H50.755ZM129.258 127.83C129.258 124.691 130.506 121.68 132.725 119.461C134.945 117.241 137.956 115.994 141.095 115.994C144.235 115.994 147.245 117.241 149.465 119.461C151.685 121.681 152.932 124.691 152.932 127.831C152.932 130.97 151.685 133.981 149.465 136.2C147.245 138.42 144.235 139.667 141.095 139.667C137.956 139.667 134.945 138.42 132.725 136.201C130.506 133.981 129.258 130.97 129.258 127.831H134.701C134.701 129.527 135.374 131.153 136.574 132.352C137.773 133.552 139.399 134.225 141.095 134.225C142.791 134.225 144.418 133.551 145.617 132.352C146.816 131.153 147.49 129.526 147.49 127.831C147.49 126.135 146.816 124.508 145.617 123.309C144.418 122.11 142.791 121.436 141.095 121.436C139.399 121.436 137.773 122.11 136.574 123.309C135.374 124.508 134.701 126.134 134.701 127.83H129.258ZM167.83 114.905V127.83H154.973C155.063 125.106 154.334 122.417 152.878 120.113C151.422 117.808 149.308 115.994 146.809 114.905H167.83ZM167.83 112.524H80.755V68.9867C80.915 66.5134 81.9698 64.1829 83.7224 62.4303C85.4749 60.6777 87.8055 59.623 90.2788 59.4629H158.306C160.779 59.623 163.11 60.6777 164.862 62.4303C166.615 64.1829 167.67 66.5134 167.83 68.9867V112.524Z" fill="black"/>
</g>
</svg>
