<svg width="303" height="132" viewBox="0 0 303 132" fill="none" xmlns="http://www.w3.org/2000/svg">
<path d="M105.966 76V55.9363H122.215V76H118.343V59.3556H109.837V76H105.966ZM126.583 76V55.9363H130.454V70.5178L140.175 55.9363H143.792V76H139.921V61.588L130.313 76H126.583ZM160.877 76V59.3556H155L154.887 62.7467C154.792 65.403 154.576 67.5977 154.237 69.3309C153.897 71.0641 153.408 72.43 152.767 73.4285C152.127 74.4081 151.316 75.1051 150.337 75.5196C149.376 75.9152 148.217 76.113 146.861 76.113V72.7502C147.558 72.7502 148.161 72.5995 148.67 72.2981C149.178 71.9967 149.602 71.4503 149.941 70.6591C150.299 69.8679 150.582 68.7469 150.789 67.2963C150.996 65.8457 151.138 63.9712 151.213 61.6728L151.411 55.9363H164.749V76H160.877ZM169.109 76V55.9363H172.98V70.5178L182.701 55.9363H186.318V76H182.447V61.588L172.839 76H169.109ZM190.687 76V55.9363H203.008V59.3556H194.558V76H190.687ZM205.809 76V55.9363H214.314C215.238 55.9363 216.085 56.1247 216.858 56.5015C217.63 56.8783 218.299 57.3869 218.864 58.0275C219.448 58.668 219.9 59.3839 220.22 60.1751C220.541 60.9664 220.701 61.7764 220.701 62.6054C220.701 63.7357 220.437 64.8095 219.91 65.8269C219.382 66.8442 218.657 67.6731 217.734 68.3136C216.811 68.9542 215.718 69.2744 214.456 69.2744H209.708V76H205.809ZM209.708 65.8551H214.23C214.701 65.8551 215.124 65.7232 215.501 65.4595C215.878 65.1957 216.179 64.819 216.406 64.3291C216.632 63.8205 216.745 63.2459 216.745 62.6054C216.745 61.9083 216.613 61.3149 216.349 60.8251C216.104 60.3352 215.774 59.9679 215.36 59.723C214.964 59.4781 214.531 59.3556 214.06 59.3556H209.708V65.8551ZM223.556 76V55.9363H227.428V70.5178L237.149 55.9363H240.766V76H236.894V61.588L227.286 76H223.556ZM261.44 76V62.8314L256.297 72.6372H254.121L248.978 62.8314V76H245.078V55.9363H249.26L255.195 67.3528L261.186 55.9363H265.34V76H261.44Z" fill="black"/>
<path fill-rule="evenodd" clip-rule="evenodd" d="M80 52H38V80H47V62H71V80H80V52Z" fill="black"/>
<path d="M82 66.5L94.75 59.1388L94.75 73.8612L82 66.5Z" fill="black"/>
</svg>
