<svg width="118" height="118" viewBox="0 0 118 118" fill="none" xmlns="http://www.w3.org/2000/svg">
<circle cx="59" cy="59" r="57.5" fill="white" stroke="black" stroke-width="3"/>
<path d="M49.3431 65V57.6728L46.3166 63.2334H45.3609L42.32 57.6728V65H40.6982V54.7188H42.4358L45.8388 61.0034L49.2417 54.7188H50.9794V65H49.3431ZM60.35 63.5664V65H53.298V54.7188H60.2197V56.1524H54.9198V59.0775H59.5101V60.4241H54.9198V63.5664H60.35ZM62.0231 65V54.7188H66.3383C66.8017 54.7188 67.2264 54.8153 67.6126 55.0084C67.9987 55.2015 68.3366 55.4573 68.6262 55.7759C68.9158 56.0945 69.1379 56.4516 69.2923 56.8474C69.4468 57.2432 69.524 57.6487 69.524 58.0638C69.524 58.6334 69.3937 59.1788 69.133 59.7001C68.882 60.2118 68.52 60.6269 68.047 60.9454C67.5836 61.264 67.043 61.4233 66.4252 61.4233H63.6449V65H62.0231ZM63.6449 59.9897H66.3238C66.6327 59.9897 66.903 59.9077 67.1347 59.7436C67.3664 59.5698 67.545 59.3381 67.6705 59.0485C67.8056 58.7589 67.8732 58.4307 67.8732 58.0638C67.8732 57.6873 67.796 57.3543 67.6415 57.0647C67.4871 56.775 67.2843 56.553 67.0333 56.3985C66.792 56.2344 66.5265 56.1524 66.2369 56.1524H63.6449V59.9897ZM76.7215 65V60.8441C76.5767 60.902 76.3885 60.9744 76.1568 61.0613C75.9251 61.1385 75.65 61.2061 75.3314 61.264C75.0225 61.3219 74.6653 61.3509 74.2598 61.3509C73.0917 61.3509 72.2229 61.0902 71.6533 60.5689C71.0837 60.0476 70.799 59.2174 70.799 58.0783V54.7188H72.3773V57.9045C72.3773 58.5803 72.5463 59.0775 72.8842 59.396C73.222 59.7146 73.7916 59.8739 74.5929 59.8739C74.9694 59.8739 75.3507 59.8304 75.7368 59.7436C76.1326 59.6567 76.4609 59.5457 76.7215 59.4105V54.7188H78.3144V65H76.7215Z" fill="black"/>
</svg>
