<svg width="118" height="118" viewBox="0 0 118 118" fill="none" xmlns="http://www.w3.org/2000/svg">
<circle cx="59" cy="59" r="57.5" fill="white" stroke="black" stroke-width="3"/>
<path d="M36.4137 55V44.7188H38.0356V49.0195H39.2375L42.4666 44.7188H44.3201L40.5407 49.7001L44.5953 55H42.6114L39.2375 50.511H38.0356V55H36.4137ZM46.1584 55V44.7188H47.7802V52.7121L53.2683 44.7188H54.7888V55H53.167V47.1371L47.7368 55H46.1584ZM65.6148 44.7188V55H63.9785V50.4676H58.7945V55H57.1726V44.7188H58.7945V49.0195H63.9785V44.7188H65.6148ZM72.2058 55.0724C71.4625 55.0724 70.7916 54.9276 70.193 54.638C69.5945 54.3484 69.078 53.9574 68.6436 53.4651C68.2092 52.9631 67.8713 52.4032 67.63 51.7853C67.3983 51.1578 67.2825 50.5159 67.2825 49.8594C67.2825 49.174 67.4079 48.5224 67.6589 47.9045C67.9099 47.277 68.2575 46.7219 68.7015 46.2393C69.1456 45.7469 69.6669 45.3608 70.2654 45.0808C70.8736 44.7912 71.5301 44.6464 72.2348 44.6464C72.9685 44.6464 73.6346 44.796 74.2331 45.0953C74.8413 45.3946 75.3578 45.7952 75.7825 46.2972C76.217 46.7992 76.55 47.3591 76.7817 47.9769C77.023 48.5948 77.1437 49.2271 77.1437 49.8739C77.1437 50.5593 77.0182 51.2157 76.7672 51.8432C76.5259 52.4611 76.1832 53.0162 75.7391 53.5085C75.295 53.9912 74.7689 54.3725 74.1607 54.6525C73.5622 54.9324 72.9106 55.0724 72.2058 55.0724ZM68.9332 49.8594C68.9332 50.3421 69.0105 50.8103 69.1649 51.264C69.3194 51.7177 69.5366 52.1232 69.8165 52.4804C70.1062 52.8279 70.4537 53.103 70.8591 53.3058C71.2646 53.5085 71.7183 53.6099 72.2203 53.6099C72.7416 53.6099 73.205 53.5037 73.6105 53.2913C74.0159 53.0789 74.3538 52.7941 74.6241 52.4369C74.9041 52.0701 75.1164 51.6646 75.2612 51.2206C75.406 50.7668 75.4784 50.3131 75.4784 49.8594C75.4784 49.3767 75.4012 48.9133 75.2468 48.4693C75.102 48.0155 74.8847 47.6149 74.5951 47.2674C74.3055 46.9102 73.958 46.6302 73.5525 46.4275C73.1567 46.2248 72.7127 46.1234 72.2203 46.1234C71.699 46.1234 71.2356 46.2296 70.8302 46.442C70.4247 46.6544 70.082 46.9392 69.8021 47.2963C69.5221 47.6535 69.3049 48.0542 69.1504 48.4982C69.0056 48.9423 68.9332 49.396 68.9332 49.8594ZM78.5476 51.7564V50.3228H82.8773V51.7564H78.5476ZM22.3733 72V71.0588C21.7458 71.0298 21.1473 70.9043 20.5777 70.6823C20.0178 70.4602 19.5206 70.1513 19.0862 69.7555C18.6615 69.3597 18.3236 68.8915 18.0726 68.3509C17.8312 67.8006 17.7106 67.1973 17.7106 66.5408C17.7106 65.8458 17.8409 65.2279 18.1016 64.6873C18.3622 64.1371 18.7097 63.6689 19.1442 63.2827C19.5786 62.8869 20.0709 62.5828 20.6212 62.3704C21.1811 62.158 21.7651 62.0374 22.3733 62.0084V61.2265H23.9227V62.0084C24.5406 62.0374 25.1295 62.1629 25.6894 62.3849C26.2493 62.6069 26.7464 62.911 27.1809 63.2972C27.6153 63.6833 27.958 64.1515 28.209 64.7018C28.46 65.2521 28.5855 65.8651 28.5855 66.5408C28.5855 67.2166 28.4552 67.8296 28.1945 68.3799C27.9435 68.9205 27.6008 69.3887 27.1664 69.7845C26.732 70.1706 26.2348 70.4747 25.6749 70.6967C25.115 70.9091 24.5309 71.0298 23.9227 71.0588V72H22.3733ZM22.4168 69.741V63.3261C21.8568 63.3551 21.3404 63.5047 20.8673 63.775C20.404 64.0357 20.0323 64.3977 19.7523 64.8611C19.482 65.3245 19.3469 65.8844 19.3469 66.5408C19.3469 67.0332 19.4289 67.4772 19.5931 67.873C19.7668 68.2592 19.9937 68.5874 20.2736 68.8577C20.5632 69.1184 20.8915 69.3259 21.2583 69.4804C21.6348 69.6348 22.021 69.7217 22.4168 69.741ZM23.8938 69.741C24.444 69.7121 24.9509 69.5673 25.4142 69.3066C25.8776 69.0363 26.2493 68.6695 26.5292 68.2061C26.8092 67.7331 26.9492 67.178 26.9492 66.5408C26.9492 66.0485 26.8671 65.6092 26.703 65.2231C26.5485 64.837 26.3265 64.5087 26.0369 64.2384C25.7473 63.9585 25.4191 63.7413 25.0522 63.5868C24.6854 63.4323 24.2992 63.3455 23.8938 63.3261V69.741ZM36.9446 72V63.1524H33.5127L33.4548 65.0638C33.3969 66.4443 33.2859 67.5883 33.1217 68.4957C32.9576 69.3935 32.7211 70.103 32.4122 70.6243C32.1033 71.136 31.7171 71.5028 31.2537 71.7249C30.7904 71.9373 30.2353 72.0434 29.5885 72.0434V70.6243C29.9457 70.6243 30.2594 70.5423 30.5297 70.3782C30.8 70.2044 31.0269 69.9003 31.2103 69.4659C31.4034 69.0315 31.553 68.4233 31.6592 67.6414C31.775 66.8497 31.8523 65.8409 31.8909 64.6149L31.9923 61.7188H38.5809V72H36.9446ZM47.9553 70.5664V72H40.9032V61.7188H47.8249V63.1524H42.5251V66.0775H47.1154V67.4241H42.5251V70.5664H47.9553ZM49.6283 72V61.7188H51.2502V70.5664H54.7689V61.7188H56.4052V70.5664H59.924V61.7188H61.5603V72H49.6283ZM63.883 72V61.7188H71.1088V63.1379H65.5048V66.0195H68.5167C69.6559 66.0195 70.5102 66.2898 71.0798 66.8304C71.6494 67.3614 71.9342 68.0661 71.9342 68.9446C71.9342 69.5335 71.8087 70.0596 71.5577 70.523C71.3163 70.9767 70.9495 71.3387 70.4571 71.609C69.9745 71.8697 69.3614 72 68.6181 72H63.883ZM65.5048 70.5809H68.4009C68.845 70.5809 69.2022 70.4988 69.4725 70.3347C69.7524 70.1706 69.9503 69.9631 70.0662 69.7121C70.1917 69.4514 70.2544 69.1811 70.2544 68.9012C70.2544 68.6212 70.2013 68.3606 70.0951 68.1192C69.9889 67.8779 69.7959 67.6848 69.5159 67.54C69.2456 67.3855 68.8643 67.3083 68.3719 67.3083H65.5048V70.5809ZM80.5082 70.5664V72H73.4562V61.7188H80.3779V63.1524H75.078V66.0775H79.6684V67.4241H75.078V70.5664H80.5082ZM82.1958 72V61.7188H83.8176V66.0195H85.0195L88.2487 61.7188H90.1022L86.3227 66.7001L90.3773 72H88.3935L85.0195 67.511H83.8176V72H82.1958ZM91.9404 72V61.7188H93.5622V69.7121L99.0504 61.7188H100.571V72H98.949V64.1371L93.5188 72H91.9404Z" fill="black"/>
</svg>
