<svg width="118" height="118" viewBox="0 0 118 118" fill="none" xmlns="http://www.w3.org/2000/svg">
<circle cx="59" cy="59" r="57.5" fill="white" stroke="black" stroke-width="3"/>
<path d="M35.4436 53.7188H36.9785L40.9752 64H39.2665L38.1804 61.2053H34.2128L33.1412 64H31.418L35.4436 53.7188ZM37.8619 60.0034L36.2111 55.4999L34.5024 60.0034H37.8619ZM45.8477 64V63.0588C45.2202 63.0298 44.6216 62.9043 44.0521 62.6823C43.4922 62.4602 42.995 62.1513 42.5606 61.7555C42.1358 61.3597 41.7979 60.8915 41.5469 60.3509C41.3056 59.8006 41.1849 59.1973 41.1849 58.5408C41.1849 57.8458 41.3152 57.2279 41.5759 56.6873C41.8365 56.1371 42.1841 55.6689 42.6185 55.2827C43.0529 54.8869 43.5453 54.5828 44.0955 54.3704C44.6554 54.158 45.2395 54.0374 45.8477 54.0084V53.2265H47.3971V54.0084C48.0149 54.0374 48.6038 54.1629 49.1637 54.3849C49.7236 54.6069 50.2208 54.911 50.6552 55.2972C51.0896 55.6833 51.4323 56.1515 51.6833 56.7018C51.9343 57.2521 52.0598 57.8651 52.0598 58.5408C52.0598 59.2166 51.9295 59.8296 51.6688 60.3799C51.4179 60.9205 51.0751 61.3887 50.6407 61.7845C50.2063 62.1706 49.7091 62.4747 49.1492 62.6967C48.5893 62.9091 48.0053 63.0298 47.3971 63.0588V64H45.8477ZM45.8911 61.741V55.3261C45.3312 55.3551 44.8147 55.5047 44.3417 55.775C43.8783 56.0357 43.5066 56.3977 43.2267 56.8611C42.9564 57.3245 42.8212 57.8844 42.8212 58.5408C42.8212 59.0332 42.9033 59.4772 43.0674 59.873C43.2412 60.2592 43.468 60.5874 43.748 60.8577C44.0376 61.1184 44.3658 61.3259 44.7327 61.4804C45.1092 61.6348 45.4953 61.7217 45.8911 61.741ZM47.3681 61.741C47.9184 61.7121 48.4252 61.5673 48.8886 61.3066C49.352 61.0363 49.7236 60.6695 50.0036 60.2061C50.2835 59.7331 50.4235 59.178 50.4235 58.5408C50.4235 58.0485 50.3415 57.6092 50.1774 57.2231C50.0229 56.837 49.8009 56.5087 49.5112 56.2384C49.2216 55.9585 48.8934 55.7413 48.5266 55.5868C48.1597 55.4323 47.7736 55.3455 47.3681 55.3261V61.741ZM53.8158 64V53.7188H55.4376V61.7121L60.9258 53.7188H62.4462V64H60.8244V56.1371L55.3942 64H53.8158ZM64.8301 64V53.7188H66.4519V62.5664H69.9707V53.7188H71.607V62.5664H75.1258V53.7188H76.7621V64H64.8301ZM82.0388 53.7188H83.5737L87.5703 64H85.8616L84.7756 61.2053H80.8079L79.7364 64H78.0132L82.0388 53.7188ZM84.457 60.0034L82.8062 55.4999L81.0975 60.0034H84.457Z" fill="black"/>
</svg>
